<?xml version="1.0" encoding="UTF-8" standalone="no"?>
<!-- Created with Inkscape (http://www.inkscape.org/) -->

<svg
   xmlns:dc="http://purl.org/dc/elements/1.1/"
   xmlns:cc="http://creativecommons.org/ns#"
   xmlns:rdf="http://www.w3.org/1999/02/22-rdf-syntax-ns#"
   xmlns:svg="http://www.w3.org/2000/svg"
   xmlns="http://www.w3.org/2000/svg"
   xmlns:sodipodi="http://sodipodi.sourceforge.net/DTD/sodipodi-0.dtd"
   xmlns:inkscape="http://www.inkscape.org/namespaces/inkscape"
   width="171.29149mm"
   height="33.318108mm"
   viewBox="0 0 606.93835 118.05629"
   id="svg2"
   version="1.1"
   inkscape:version="0.91 r13725"
   sodipodi:docname="sanitor-logo.svg">
  <defs
     id="defs4" />
  <sodipodi:namedview
     id="base"
     pagecolor="#ffffff"
     bordercolor="#666666"
     borderopacity="1.0"
     inkscape:pageopacity="0.0"
     inkscape:pageshadow="2"
     inkscape:zoom="0.98994949"
     inkscape:cx="268.04108"
     inkscape:cy="231.47781"
     inkscape:document-units="px"
     inkscape:current-layer="layer1"
     showgrid="false"
     fit-margin-left="0.3"
     fit-margin-top="0.3"
     fit-margin-right="0.3"
     fit-margin-bottom="0.3"
     inkscape:window-width="1920"
     inkscape:window-height="1105"
     inkscape:window-x="0"
     inkscape:window-y="360"
     inkscape:window-maximized="1" />
  <metadata
     id="metadata7">
    <rdf:RDF>
      <cc:Work
         rdf:about="">
        <dc:format>image/svg+xml</dc:format>
        <dc:type
           rdf:resource="http://purl.org/dc/dcmitype/StillImage" />
        <dc:title></dc:title>
      </cc:Work>
    </rdf:RDF>
  </metadata>
  <g
     inkscape:label="Ebene 1"
     inkscape:groupmode="layer"
     id="layer1"
     transform="translate(-91.111818,-201.19914)">
    <flowRoot
       xml:space="preserve"
       id="flowRoot3344"
       style="font-style:normal;font-weight:normal;font-size:40px;line-height:125%;font-family:sans-serif;letter-spacing:0px;word-spacing:0px;fill:#000000;fill-opacity:1;stroke:none;stroke-width:1px;stroke-linecap:butt;stroke-linejoin:miter;stroke-opacity:1"><flowRegion
         id="flowRegion3346"><rect
           id="rect3348"
           width="611.42859"
           height="231.42857"
           x="77.14286"
           y="232.3622" /></flowRegion><flowPara
         id="flowPara3350"></flowPara></flowRoot>    <g
       style="font-style:normal;font-variant:normal;font-weight:bold;font-stretch:normal;font-size:90px;line-height:125%;font-family:sans-serif;-inkscape-font-specification:'sans-serif Bold';letter-spacing:0px;word-spacing:0px;fill:#000000;fill-opacity:1;stroke:none;stroke-width:1px;stroke-linecap:butt;stroke-linejoin:miter;stroke-opacity:1"
       id="text3360"
       transform="matrix(1.6643901,0,0,1.6643901,-61.240023,-134.38094)">
      <path
         d="m 139.63574,207.0961 0,13.88672 q -5.40527,-2.41699 -10.54687,-3.64746 -5.1416,-1.23047 -9.71192,-1.23047 -6.06445,0 -8.96484,1.66992 -2.90039,1.66992 -2.90039,5.18555 0,2.63672 1.93359,4.13086 1.97754,1.45019 7.11914,2.50488 l 7.20703,1.4502 q 10.94239,2.19726 15.55664,6.67968 4.61426,4.48242 4.61426,12.74414 0,10.8545 -6.45996,16.17188 -6.41601,5.27344 -19.64355,5.27344 -6.24024,0 -12.52442,-1.18653 -6.284177,-1.18652 -12.568356,-3.51562 l 0,-14.28223 q 6.284179,3.33984 12.128906,5.05371 5.88867,1.66992 11.33789,1.66992 5.53711,0 8.48145,-1.8457 2.94433,-1.8457 2.94433,-5.27344 0,-3.07617 -2.02148,-4.74609 -1.97754,-1.66992 -7.9541,-2.98828 l -6.54786,-1.4502 q -9.84375,-2.10937 -14.414058,-6.72363 -4.526367,-4.61426 -4.526367,-12.43652 0,-9.79981 6.328125,-15.07325 6.32812,-5.27343 18.19336,-5.27343 5.40527,0 11.11816,0.83496 5.71289,0.79101 11.82129,2.41699 z"
         id="path3367"
         inkscape:connector-curvature="0" />
      <path
         d="m 180.19727,248.49258 q -4.92188,0 -7.42676,1.66993 -2.46094,1.66992 -2.46094,4.92187 0,2.98828 1.97754,4.70215 2.02148,1.66992 5.58105,1.66992 4.43848,0 7.47071,-3.16406 3.03222,-3.20801 3.03222,-7.99805 l 0,-1.80176 -8.17382,0 z m 24.03808,-5.93261 0,28.08105 -15.86426,0 0,-7.29492 q -3.16406,4.48242 -7.11914,6.54785 -3.95508,2.02149 -9.62402,2.02149 -7.64648,0 -12.43652,-4.43848 -4.7461,-4.48242 -4.7461,-11.60156 0,-8.65723 5.93262,-12.7002 5.97656,-4.04297 18.7207,-4.04297 l 9.27246,0 0,-1.23047 q 0,-3.73535 -2.94433,-5.44921 -2.94434,-1.75782 -9.18457,-1.75782 -5.05371,0 -9.4043,1.01074 -4.35059,1.01075 -8.08594,3.03223 l 0,-11.99707 q 5.05371,-1.23047 10.15137,-1.8457 5.09766,-0.65918 10.19531,-0.65918 13.31543,0 19.2041,5.27344 5.93262,5.22949 5.93262,17.05078 z"
         id="path3369"
         inkscape:connector-curvature="0" />
      <path
         d="m 268.43945,240.67032 0,29.9707 -15.82031,0 0,-4.87793 0,-18.06152 q 0,-6.37207 -0.30762,-8.78906 -0.26367,-2.417 -0.96679,-3.55957 -0.92286,-1.53809 -2.50489,-2.37305 -1.58203,-0.87891 -3.60351,-0.87891 -4.92188,0 -7.73438,3.82324 -2.8125,3.7793 -2.8125,10.50293 l 0,24.21387 -15.73242,0 0,-49.21875 15.73242,0 0,7.20703 q 3.55957,-4.30664 7.5586,-6.32812 3.99902,-2.06543 8.833,-2.06543 8.5254,0 12.91993,5.22949 4.43847,5.22949 4.43847,15.20508 z"
         id="path3371"
         inkscape:connector-curvature="0" />
      <path
         d="m 283.11719,221.42227 15.73242,0 0,49.21875 -15.73242,0 0,-49.21875 z m 0,-19.16015 15.73242,0 0,12.83203 -15.73242,0 0,-12.83203 z"
         id="path3373"
         inkscape:connector-curvature="0" />
      <path
         d="m 331.2373,207.44766 0,13.97461 c 6.76919,0.0884 16.1667,0.17487 16.21582,11.25 l -16.21582,0 0,20.87403 c 0,2.28515 0.4541,3.83789 1.36231,4.6582 0.9082,0.79101 2.70996,1.18652 5.40527,1.18652 l 8.08594,0 0,11.25 -13.49121,0 c -6.21094,0 -10.62012,-1.28906 -13.22754,-3.86719 -2.57813,-2.60742 -3.86719,-7.0166 -3.86719,-13.22753 l 0,-20.87403 -7.82226,0 0,-11.25 7.82226,0 0,-13.97461 z"
         id="path3375"
         inkscape:connector-curvature="0"
         sodipodi:nodetypes="ccccscsccscscccccc" />
      <path
         d="m 380.54395,231.48575 q -5.2295,0 -7.99805,3.7793 -2.72461,3.73535 -2.72461,10.81054 0,7.0752 2.72461,10.85449 2.76855,3.73536 7.99805,3.73536 5.1416,0 7.86621,-3.73536 2.72461,-3.77929 2.72461,-10.85449 0,-7.07519 -2.72461,-10.81054 -2.72461,-3.7793 -7.86621,-3.7793 z m 0,-11.25 q 12.70019,0 19.81933,6.85547 7.16309,6.85547 7.16309,18.98437 0,12.12891 -7.16309,18.98438 -7.11914,6.85547 -19.81933,6.85547 -12.74415,0 -19.95118,-6.85547 -7.16308,-6.85547 -7.16308,-18.98438 0,-12.1289 7.16308,-18.98437 7.20703,-6.85547 19.95118,-6.85547 z"
         id="path3377"
         inkscape:connector-curvature="0" />
      <path
         d="m 455.55859,234.82559 q -2.06543,-0.96679 -4.13086,-1.40625 -2.02148,-0.4834 -4.08691,-0.4834 -6.06445,0 -9.36035,3.91114 -3.25195,3.86718 -3.25195,11.11816 l 0,22.67578 -15.73243,0 0,-49.21875 15.73243,0 0,8.08594 q 3.03222,-4.83399 6.94335,-7.03125 3.95508,-2.24121 9.44825,-2.24121 0.79101,0 1.71386,0.0879 0.92286,0.0439 2.68067,0.26367 l 0.0439,14.23828 z"
         id="path3379"
         inkscape:connector-curvature="0" />
    </g>
    <path
       inkscape:connector-curvature="0"
       d="m 524.53665,266.90543 0,0.93935 c -0.0626,0.17363 -0.01,0.41558 -0.0854,0.59777 -0.35296,3.07419 -2.9831,5.86659 -6.03454,6.40457 -0.31028,0.12233 -0.67746,0.1195 -0.99627,0.1708 l -1.16706,0 c -0.31881,-0.0513 -0.68601,-0.0483 -0.99627,-0.1708 -3.29053,-0.56644 -5.97038,-3.73742 -6.11994,-7.03082 l 0,-0.96779 c 0.10435,-0.6433 0.23687,-1.31224 0.49102,-1.92706 0.25732,-0.49529 0.52232,-0.98775 0.82548,-1.45172 l 0.96781,-1.30939 c 2.16475,-2.57321 4.06051,-5.33715 5.48659,-8.34873 l 0.39281,0.83259 c 1.17844,2.87069 3.0372,5.4126 5.06674,7.80078 0.21918,0.32166 0.45544,0.63478 0.71163,0.93935 0.38142,0.58638 0.75431,1.17846 1.05321,1.82176 0.20493,0.54367 0.33302,1.13004 0.40419,1.69934 z"
       id="path412"
       style="fill:#50506e;fill-opacity:1;stroke:none;stroke-opacity:1" />
  </g>
</svg>
