<?xml version="1.0" encoding="UTF-8" standalone="no"?>
<!DOCTYPE svg PUBLIC "-//W3C//DTD SVG 1.1//EN"
 "http://www.w3.org/Graphics/SVG/1.1/DTD/svg11.dtd">
<!-- Generated by graphviz version 2.38.0 (20140413.2041)
 -->
<!-- Title: G Pages: 1 -->
<svg width="359pt" height="294pt"
 viewBox="0.00 0.00 359.49 294.00" xmlns="http://www.w3.org/2000/svg" xmlns:xlink="http://www.w3.org/1999/xlink">
<g id="graph0" class="graph" transform="scale(1 1) rotate(0) translate(4 290)">
<title>G</title>
<polygon fill="white" stroke="none" points="-4,4 -4,-290 355.491,-290 355.491,4 -4,4"/>
<g id="clust1" class="cluster"><title>cluster_Global</title>
<path fill="none" stroke="gray" d="M165.491,-8C165.491,-8 331.491,-8 331.491,-8 337.491,-8 343.491,-14 343.491,-20 343.491,-20 343.491,-266 343.491,-266 343.491,-272 337.491,-278 331.491,-278 331.491,-278 165.491,-278 165.491,-278 159.491,-278 153.491,-272 153.491,-266 153.491,-266 153.491,-20 153.491,-20 153.491,-14 159.491,-8 165.491,-8"/>
<text text-anchor="middle" x="248.491" y="-265.2" font-family="Times,serif" font-size="11.00" fill="gray">Global</text>
</g>
<g id="clust2" class="cluster"><title>cluster_\Sanitor</title>
<path fill="none" stroke="gray" d="M173.491,-16C173.491,-16 323.491,-16 323.491,-16 329.491,-16 335.491,-22 335.491,-28 335.491,-28 335.491,-238 335.491,-238 335.491,-244 329.491,-250 323.491,-250 323.491,-250 173.491,-250 173.491,-250 167.491,-250 161.491,-244 161.491,-238 161.491,-238 161.491,-28 161.491,-28 161.491,-22 167.491,-16 173.491,-16"/>
<text text-anchor="middle" x="248.491" y="-237.2" font-family="Times,serif" font-size="11.00" fill="gray">Sanitor</text>
</g>
<!-- \\Sanitor\\SanitizationException -->
<g id="node1" class="node"><title>\\Sanitor\\SanitizationException</title>
<polygon fill="none" stroke="black" points="327.491,-222 169.491,-222 169.491,-186 327.491,-186 327.491,-222"/>
<text text-anchor="middle" x="248.491" y="-201.2" font-family="Courier,monospace" font-size="11.00">SanitizationException</text>
</g>
<!-- \\Exception -->
<g id="node5" class="node"><title>\\Exception</title>
<ellipse fill="none" stroke="black" cx="48.7457" cy="-204" rx="48.9926" ry="18"/>
<text text-anchor="middle" x="48.7457" y="-200.3" font-family="Times,serif" font-size="14.00" fill="gray">\Exception</text>
</g>
<!-- \\Sanitor\\SanitizationException&#45;&gt;\\Exception -->
<g id="edge1" class="edge"><title>\\Sanitor\\SanitizationException&#45;&gt;\\Exception</title>
<path fill="none" stroke="black" d="M169.337,-204C148.839,-204 127.097,-204 107.853,-204"/>
<polygon fill="none" stroke="black" points="107.741,-200.5 97.7406,-204 107.741,-207.5 107.741,-200.5"/>
</g>
<!-- \\Sanitor\\Sanitizer -->
<g id="node2" class="node"><title>\\Sanitor\\Sanitizer</title>
<polygon fill="none" stroke="black" points="286.991,-168 209.991,-168 209.991,-132 286.991,-132 286.991,-168"/>
<text text-anchor="middle" x="248.491" y="-147.2" font-family="Courier,monospace" font-size="11.00">Sanitizer</text>
</g>
<!-- \\Sanitor\\SanitizableInterface -->
<g id="node3" class="node"><title>\\Sanitor\\SanitizableInterface</title>
<polygon fill="none" stroke="black" points="324.491,-114 172.491,-114 172.491,-78 324.491,-78 324.491,-114"/>
<text text-anchor="middle" x="248.491" y="-93.2" font-family="Courier,monospace" font-size="11.00">SanitizableInterface</text>
</g>
<!-- \\Sanitor\\SanitizableTrait -->
<g id="node4" class="node"><title>\\Sanitor\\SanitizableTrait</title>
<polygon fill="none" stroke="black" points="310.991,-60 185.991,-60 185.991,-24 310.991,-24 310.991,-60"/>
<text text-anchor="middle" x="248.491" y="-39.2" font-family="Courier,monospace" font-size="11.00">SanitizableTrait</text>
</g>
</g>
</svg>
